# xmcd CD database file
# Copyright (C) 1995-1998 Ti Kan
#
# Track frame offsets:
#	182
#	5690
#	18907
#	30740
#	47242
#	61377
#	75890
#	86112
#	102002
#	116347
#	125850
#	136725
#	147652
#	163185
#
# Disc length: 2400 seconds
#
# Revision: 1
# Processed by: cddbd v1.4PL0 Copyright (c) Steve Scherf et al.
# Submitted via: CDex 1.30
#
DISCID=b8095e0e
DTITLE=The Rythm 'n' Blues Revie - four fried chickens and a coke
DYEAR=1992
DGENRE=Blues
TTITLE0=Can't Turn You Loose
TTITLE1=Gimme Some Lovin'
TTITLE2=Do Ya Love Me
TTITLE3=Mustang Sally
TTITLE4=Grits Ain't Groceries
TTITLE5=Knock On Wood
TTITLE6=Guilty
TTITLE7=Hard To Handle
TTITLE8=Midnight Hour
TTITLE9=Ain't Got You
TTITLE10=Sweet Soul Music
TTITLE11=Hey, Bartender!
TTITLE12=Everybody (Needs Somebody)
TTITLE13=Jailhouse Rock
EXTD=YEAR: 1992  ID3G:   0
EXTT0=
EXTT1=
EXTT2=
EXTT3=
EXTT4=
EXTT5=
EXTT6=
EXTT7=
EXTT8=
EXTT9=
EXTT10=
EXTT11=
EXTT12=
EXTT13=
PLAYORDER=
